<svg id="Ebene_1" data-name="Ebene 1" xmlns="http://www.w3.org/2000/svg" viewBox="0 0 69.487 66.361"><defs><style>.cls-1{fill:#fff;}.cls-2{fill:#aec700;}.cls-3{fill:#e65293;}.cls-4{fill:#00b0e5;}</style></defs><path class="cls-1" d="M42.544,28.993S64.18,31.172,67.6,44.394c2.809,10.86-3.667,15-9.028,15.03S46.857,53.488,49.1,46.846c4.942-14.631-6.557-17.853-6.557-17.853"/><path class="cls-1" d="M23.306,3.336S36.52,28.877,54.441,26.645C69.162,24.811,71.1,14.833,68.527,8.228s-13-11.515-20.077-5.523c-15.584,13.2-25.144.631-25.144.631"/><path class="cls-1" d="M0,12.023S28.442,9.529,41.124,34.3c11.7,22.855-4.027,29.725-12.1,31.686-5.376,1.3-16.4-.515-21.348-10.06-4.039-7.8-.491-15.75,2.579-21.509S17.174,22.509,15,18.647c-3.287-5.829-15-6.624-15-6.624"/><path class="cls-2" d="M42.544,28.993S64.18,31.172,67.6,44.394c2.809,10.86-3.667,15-9.028,15.03S46.857,53.488,49.1,46.846c4.942-14.631-6.557-17.853-6.557-17.853"/><path class="cls-3" d="M23.306,3.336S36.52,28.877,54.441,26.645C69.162,24.811,71.1,14.833,68.527,8.228s-13-11.515-20.077-5.523c-15.584,13.2-25.144.631-25.144.631"/><path class="cls-4" d="M0,12.023S28.442,9.529,41.124,34.3c11.7,22.855-4.027,29.725-12.1,31.686-5.376,1.3-16.4-.515-21.348-10.06-4.039-7.8-.491-15.75,2.579-21.509S17.174,22.509,15,18.647c-3.287-5.829-15-6.624-15-6.624"/></svg>