<?xml version="1.0" encoding="UTF-8"?>
<svg width="69.487" height="69.487" data-name="Ebene 1" version="1.1" viewBox="0 0 69.487 69.487" xmlns="http://www.w3.org/2000/svg" xmlns:cc="http://creativecommons.org/ns#" xmlns:dc="http://purl.org/dc/elements/1.1/" xmlns:rdf="http://www.w3.org/1999/02/22-rdf-syntax-ns#">
 <defs>
  <style>.cls-1{fill:#fff;}.cls-2{fill:#aec700;}.cls-3{fill:#e65293;}.cls-4{fill:#00b0e5;}</style>
 </defs>
 <path class="cls-1" d="m42.544 30.557s21.636 2.179 25.056 15.401c2.809 10.86-3.667 15-9.028 15.03s-11.715-5.936-9.472-12.578c4.942-14.631-6.557-17.853-6.557-17.853"/>
 <path class="cls-1" d="m23.306 4.9003s13.214 25.541 31.135 23.309c14.721-1.834 16.659-11.812 14.086-18.417-2.573-6.605-13-11.515-20.077-5.523-15.584 13.2-25.144 0.631-25.144 0.631"/>
 <path class="cls-1" d="m3.7278e-4 13.587s28.442-2.494 41.124 22.277c11.7 22.855-4.027 29.725-12.1 31.686-5.376 1.3-16.4-0.515-21.348-10.06-4.039-7.8-0.491-15.75 2.579-21.509 3.07-5.759 6.919-11.908 4.745-15.77-3.287-5.829-15-6.624-15-6.624"/>
 <path class="cls-2" d="m42.544 30.557s21.636 2.179 25.056 15.401c2.809 10.86-3.667 15-9.028 15.03s-11.715-5.936-9.472-12.578c4.942-14.631-6.557-17.853-6.557-17.853"/>
 <path class="cls-3" d="m23.306 4.9003s13.214 25.541 31.135 23.309c14.721-1.834 16.659-11.812 14.086-18.417-2.573-6.605-13-11.515-20.077-5.523-15.584 13.2-25.144 0.631-25.144 0.631"/>
 <path class="cls-4" d="m3.7278e-4 13.587s28.442-2.494 41.124 22.277c11.7 22.855-4.027 29.725-12.1 31.686-5.376 1.3-16.4-0.515-21.348-10.06-4.039-7.8-0.491-15.75 2.579-21.509 3.07-5.759 6.919-11.908 4.745-15.77-3.287-5.829-15-6.624-15-6.624"/>
</svg>
